<svg width="158" height="158" fill="none" xmlns="http://www.w3.org/2000/svg"><g clip-path="url(#a)"><path fill-rule="evenodd" clip-rule="evenodd" d="M48.738 21.12a2.267 2.267 0 0 1 1.802-1.6c63.767-10.46 73.56 63.732 35.727 105.26 7.337-4.173 13.687-7.02 16.954-5.647 5.028 6.861-4.02 11.987-25.33 16.007-3.564-7.331-13.446-26.153-1.17-26.262 3.13 2.829 4.167 7.945 4.219 14.386 38.84-62.307 15.752-99.743-29.91-99.23-1.537.018-2.708-1.434-2.292-2.914Z" fill="#FACD6E"/></g><defs><clipPath id="a"><path fill="#fff" transform="rotate(27.191 26.732 110.536)" d="M0 0h117v117H0z"/></clipPath></defs></svg>