<svg width="220" height="220" fill="none" xmlns="http://www.w3.org/2000/svg"><path fill-rule="evenodd" clip-rule="evenodd" d="M126.862 19C175.529 19 209 78.642 209 126.871 209 175.1 158.443 206 109.742 206 61.04 206 31 159.963 31 111.595S78.16 19 126.862 19Z" fill="#CDE1FF"/><path fill-rule="evenodd" clip-rule="evenodd" d="M172.684 39A112.177 112.177 0 0 1 196 71.566c-24.543 24.277-44.037 52.993-64.163 80.808-19.073 26.358-28.855 41.618-58.623 13.873-14.024-13.006-27.453-27.156-41.337-40.508A116.107 116.107 0 0 1 31 111.866a81.032 81.032 0 0 1 7.223-32.809 22.197 22.197 0 0 1 2.98 1.838c19.284 16.509 36.99 35.306 55.503 53.029 9.922-13.11 21.492-30.59 29.311-40.994A396.04 396.04 0 0 1 172.684 39Z" fill="#B0C8EB"/><path fill-rule="evenodd" clip-rule="evenodd" d="M35.916 70.414c19.217 16.57 36.863 35.439 55.312 53.228 9.888-13.159 21.419-30.704 29.211-41.148 19.882-26.562 36.479-46.753 62.336-67.953a19.94 19.94 0 0 1 14.46-3.296 19.893 19.893 0 0 1 12.725 7.595 19.752 19.752 0 0 1-3.181 27.24c-32.635 26.771-56.116 62.21-80.54 96.186-19.008 26.458-28.757 41.775-58.422 13.925-18.763-17.58-36.653-37.284-55.906-54.202a19.775 19.775 0 0 1-7.717-13.048 19.733 19.733 0 0 1 3.803-14.663 19.875 19.875 0 0 1 13.097-7.688 19.916 19.916 0 0 1 14.717 3.79l.105.034Z" fill="#FFCF70"/><path fill-rule="evenodd" clip-rule="evenodd" d="M208.267 16a16.49 16.49 0 0 1 2.345 2.58 19.777 19.777 0 0 1 3.448 6.98c.676 2.53 1.178 4.547.823 7.142a19.765 19.765 0 0 1-2.552 7.35 19.837 19.837 0 0 1-5.197 5.806c-32.69 26.818-56.211 62.32-80.676 96.357-19.04 26.504-28.805 41.849-58.52 13.95-18.796-17.612-36.716-37.35-56-54.299a19.892 19.892 0 0 1-6.18-7.713 19.815 19.815 0 0 1-1.696-9.724c.49.453 1.015.872 1.54 1.29 19.215 16.949 37.136 36.688 56 54.299 29.716 27.899 39.446 12.52 58.486-13.949 24.501-34.038 48.021-69.505 80.711-96.358a19.768 19.768 0 0 0 5.458-6.325c1.346-2.473 1.809-4.581 2.01-7.386Z" fill="#E0BE7B"/></svg>