<svg width="30" height="22" fill="none" xmlns="http://www.w3.org/2000/svg"><path d="M1.85.883c-.527.12-.922.28-1.14.49-1.198 1.151 1.721 2.387 3.383 2.32 3.565-.14 8.975-.14 9.829-.14 1.38 0 10.286-.869 11.155-.869.694 0 3.438-.259 4.396-1.312.593-.001 1.048-1.713-.733-1.311-8.733 1.972-18.158-1.154-26.89.821Zm25.964 8.946c.698.088 1.215.248 1.475.502 1.198 1.17-1.745 2.424-3.417 2.357-3.569-.14-8.955-.14-9.808-.14-1.38 0-10.22-.564-11.089-.564-.695 0-3.503 0-4.504-1.015C-.03 10.46-.53 9 1.23 9c8.886 0 17.768-.288 26.583.829ZM14.586 18.14c-4.586 0-12.502-.558-13.895.962-1.147 1.252 1.865 2.546 3.555 2.387 3.452-.324 8.445-.592 9.254-.592h9.837c.677 0 4.377 0 5.835-.551.577-.002 1.945-1.654-.973-2.206-1.669-.315-9.199 0-13.613 0Z" fill="#7872B9"/></svg>