<svg width="240" height="240" fill="none" xmlns="http://www.w3.org/2000/svg"><path fill-rule="evenodd" clip-rule="evenodd" d="M109.753 10.264c-59.545 0-96.553 64.185-100.51 132.907-1.435 26.566 7.215 46.81 21.84 61.78 23.081 23.735 61.02 33.973 97.562 33.973 17.185 0 36.853-6.476 52.563-13.923 17.651-8.338 31.034-17.917 39.568-33.856 35.029-65.426-21.064-180.88-111.023-180.88Z" fill="#CDE1FF"/><path fill-rule="evenodd" clip-rule="evenodd" d="m164.488 58.587-18.853 46.926-3.064 32.383s2.754 15.513 3.413 16.599c.66 1.086-32.197 5.468-32.197 5.468l-17.146-4.886 2.56-16.134-1.164-20.554-25.719 4.46-15.051-61.315L71.31 39.971l26.378 4.77 25.332-4.77 8.223 6.516 33.245 12.1Z" fill="#FDD3D4"/><path fill-rule="evenodd" clip-rule="evenodd" d="M118.095 214.608c-1.591 5.081.427 7.097 5.508 5.507 1.63-5.235-.31-7.136-5.508-5.507Zm0-12.682 5.508.388c2.716-9.075-8.224-8.997-5.508-.388Zm5.896-23.579-5.896-.349-.349 5.933 5.896.35.349-5.934Zm86.7 26.643c-7.021 7.757-25.292 18.732-38.287 24.006a136.116 136.116 0 0 1-103.73-.232c-12.491-5.12-31.034-16.289-37.667-23.774 2.25-20.709 6.478-28.815 19.163-37.502a165.666 165.666 0 0 1 36.969-18.538c-1.901 10.316 2.599 19.391 12.84 19.701 12.025.388 17.34-9.618 20.87-12.875a69.84 69.84 0 0 0 8.34 8.726c17.34 11.634 30.181-4.073 24.866-15.513 9.504 1.706 30.84 13.806 38.016 18.77 12.491 8.649 16.293 16.909 18.62 37.231Z" fill="#9690D4"/><path fill-rule="evenodd" clip-rule="evenodd" d="m190.595 108.035-47.792 5.778V93.026c19.125-1.862 16.952-22.882 9.659-28.156-7.293-5.274-11.831 1.59-18.31 0-6.478-1.59-8.03-7.175-7.099-14.815-10.124 4.499-14.275 6.826-27.813 4.421-9.388-1.706-20.017-6.437-29.521-5.196-7.37 3.878-5.509 42.66.62 58.599 2.949 7.757 5.625 8.882 8.69 13.729-7.759.698-9.815 4.615-15.517 3.646-6.4-16.909-14.74-65.93-7.215-90.324 17.922-40.76 64.589-42.04 91.898-23.27a41.503 41.503 0 0 1 11.638 12.1c7.758 11.868.388 8.572 10.668 13.807 21.878 11.364 25.758 39.946 20.094 70.468Z" fill="#FAA8B7"/><path fill-rule="evenodd" clip-rule="evenodd" d="M154.056 149.066c5.314 11.324-7.526 27.147-24.866 15.513a69.84 69.84 0 0 1-8.34-8.726c-3.53 3.257-8.845 13.263-20.87 12.875-10.241-.349-14.741-9.385-12.84-19.701 2.56-3.684 5.43-10.432 12.025-12.294.35 8.183 0 9.347 6.44 12.294a35.658 35.658 0 0 0 30.529 0c6.401-3.064 5.935-4.15 6.439-12.333a14.66 14.66 0 0 1 7.332 5.275 14.033 14.033 0 0 1 4.151 7.097Zm-35.962 65.541c5.198-1.629 7.138.271 5.508 5.507-5.081 1.59-7.176-.427-5.508-5.507Zm0-12.681c-2.716-8.61 8.224-8.687 5.508.388l-5.508-.388Z" fill="#FFCF70"/><path d="m118.064 177.751 5.924.361-.361 5.922-5.924-.361.361-5.922Z" fill="#FFCF70"/><path fill-rule="evenodd" clip-rule="evenodd" d="M57.889 35.357a39.647 39.647 0 0 1 8.883-7.29c13.345-8.61 36.348-9.153 53.999-.66a54.817 54.817 0 0 1 19.396 14.776 35.172 35.172 0 0 1 8.534 21.873 106.021 106.021 0 0 1-7.758 30.211 37.77 37.77 0 0 1-7.759 9.89 35.227 35.227 0 0 1-19.396 9.385 16.454 16.454 0 0 0-1.784-3.219c-3.22-4.072-7.138-4.149-12.763-5.546a42.301 42.301 0 0 0-9.93-1.9 10.707 10.707 0 0 0-6.905 3.413 11.4 11.4 0 0 0 0 15.513 15.208 15.208 0 0 0 8.495 3.684c3.375.853 6.866 1.784 10.28 2.521a51.567 51.567 0 0 0 24.517-2.56 50.051 50.051 0 0 0 16.874-10.393 14.87 14.87 0 0 1 2.172-2.017 51.74 51.74 0 0 0 9.311-13.38c.62-1.202 1.784-1.163 4.383-2.327a17.421 17.421 0 0 0 4.073-2.83 8.843 8.843 0 0 0 2.677-5.275c1.125-4.538 2.56-9.463 3.452-13.962a12.494 12.494 0 0 0-3.452-9.54c-3.336-4.344-1.823 0-2.599-7.059a50.418 50.418 0 0 0-4.384-14.853l-3.607-6.516a65.028 65.028 0 0 0-17.728-17.8C114.021 4.331 66.346 3.75 58.665 31.905c-.427 1.202-.427 2.327-.776 3.451Z" fill="#645F9E"/></svg>