<svg width="150" height="150" fill="none" xmlns="http://www.w3.org/2000/svg"><path fill-rule="evenodd" clip-rule="evenodd" d="M66.012 8.362c9.442-1.799 19.149-2.93 28.752-2.547C134.86 7.415 145 53.82 145 85.508 145 120.69 107 146 67.038 143 28.5 137 5 109.555 5 74.373c0-30.926 27.044-59.54 61.012-66.011Z" fill="#FFCF70"/><path fill-rule="evenodd" clip-rule="evenodd" d="M37.109 30.316c-4.758 0-35.172.17-35.958 3.087-.404 1.532 0 83.815.595 92.394.17 3.045 1.975 1.725 7.54 1.725 7.37 0 55.519-3.981 55.986-.426.573 4.428 5.692 4.258 10.62 3.747 5.033.426 10.62.915 11.193-3.683.467-3.555 46.726.362 54.096.362 5.543 0 7.37 1.32 7.54-1.725.488-8.515.446-91.905 0-93.459-.786-2.917-28.758-1.98-33.537-1.98-.425 3.066-19.752 3.854-20.963 3.981-14.188 1.363-17.246 1.405-18.053 2.768-.744-1.426-3.696-1.427-18.075-2.832-1.232-.106-20.56-.894-20.984-3.96Z" fill="#6B66A6"/><path fill-rule="evenodd" clip-rule="evenodd" d="M12.088 34.617c7.9-2.321 33.515-5.025 43.37-5.025 11.936 0 18.563 1.022 22.089 4.045 3.525-3.023 10.152-4.045 22.088-4.045 9.855 0 35.491 2.704 43.371 5.025 0 21.693 1.699 42.94 1.38 64.144 0 3.236-1.104 26.271-1.189 26.185-8.687-8.153-57.983-5.322-65.523.213v.171a.67.67 0 0 1 0-.171c-7.519-5.535-56.836-8.366-65.523-.213 0 0-1.125-22.949-1.189-26.185-.573-21.225 1.126-42.515 1.126-64.144Z" fill="#95B1DB"/><path fill-rule="evenodd" clip-rule="evenodd" d="M7.436 29.635c7.88-2.321 33.494-5.025 43.37-5.025 11.937 0 18.542 1.022 22.068 4.045 3.525-3.023 10.152-4.045 22.088-4.045 9.855 0 35.491 2.704 43.371 5.025 0 21.693 1.699 42.94 1.38 64.144 0 3.236-1.104 26.271-1.189 26.185-8.687-8.153-57.983-5.322-65.523.213v.171-.171c-7.519-5.535-56.815-8.366-65.523-.213 0 0-1.125-22.95-1.19-26.185-.573-21.204 1.148-42.45 1.148-64.144Z" fill="#fff"/><path fill-rule="evenodd" clip-rule="evenodd" d="M102.926 24.93c11.851.809 29.161 2.874 35.405 4.705 0 21.693 1.7 42.94 1.381 64.144 0 3.236-1.104 26.271-1.189 26.186-4.588-4.258-20.496-5.557-35.597-4.94V24.93Zm-71.636 1c7.645-.787 15.121-1.32 19.518-1.32 11.936 0 18.542 1.022 22.067 4.045.168-.153.345-.296.531-.425v91.67l-.403.276v.171-.171c-4.567-3.363-24.532-5.726-41.46-5.237l-.254-89.01Z" fill="#CDE1FF"/><path fill-rule="evenodd" clip-rule="evenodd" d="M14.381 68.53c18.032-3.747 31.35-5.003 48.978.937a2.927 2.927 0 0 1 1.619 1.553 2.941 2.941 0 0 1-1.502 3.87 2.922 2.922 0 0 1-2.241.048c-16.44-5.535-29.013-4.258-45.792-.681a2.904 2.904 0 0 1-2.986-1.247 2.922 2.922 0 0 1 1.86-4.48h.064Zm.002 13.433c18.032-3.768 31.349-5.024 48.978.916a2.932 2.932 0 0 1 1.618 1.554 2.942 2.942 0 0 1-1.502 3.869 2.922 2.922 0 0 1-2.24.048c-16.44-5.535-29.013-4.151-45.792-.66a2.926 2.926 0 0 1-2.187-.454 2.938 2.938 0 0 1-1.233-1.866 2.903 2.903 0 0 1 1.289-2.996 2.883 2.883 0 0 1 1.069-.41Zm-.003 13.242c18.032-3.747 31.349-5.003 48.977.937a2.942 2.942 0 0 1 1.667 3.8 2.932 2.932 0 0 1-1.55 1.622 2.921 2.921 0 0 1-2.24.049c-16.27-5.556-29.013-4.173-45.728-.66a2.915 2.915 0 0 1-2.185-.44 2.904 2.904 0 0 1-1.235-1.86 2.927 2.927 0 0 1 1.244-2.993 2.91 2.91 0 0 1 1.05-.434v-.021ZM86.34 68.53c18.033-3.747 31.35-5.003 48.978.937a2.935 2.935 0 0 1 1.053 4.766 2.929 2.929 0 0 1-3.177.705c-16.418-5.535-29.013-4.258-45.791-.681a2.9 2.9 0 0 1-2.988-1.246 2.92 2.92 0 0 1-.432-1.054 2.943 2.943 0 0 1 1.291-3.004 2.93 2.93 0 0 1 1.067-.423Zm0 13.433c18.032-3.768 31.349-5.024 48.978.916a2.932 2.932 0 0 1 1.619 1.554c.312.713.33 1.52.048 2.246a2.923 2.923 0 0 1-3.791 1.671c-16.418-5.535-29.013-4.151-45.792-.66a2.926 2.926 0 0 1-2.186-.454 2.938 2.938 0 0 1-1.233-1.866 2.922 2.922 0 0 1 1.292-2.99 2.88 2.88 0 0 1 1.065-.416Zm0 13.242c18.033-3.747 31.35-5.003 48.978.937a2.911 2.911 0 0 1 1.888 2.642c.012.384-.052.767-.188 1.126a2.95 2.95 0 0 1-3.76 1.703c-16.418-5.556-29.012-4.258-45.791-.681a2.915 2.915 0 0 1-2.185-.44 2.915 2.915 0 0 1-1.233-2.998 2.92 2.92 0 0 1 2.292-2.289ZM24.45 38.32c.578.344 1.06.827 1.402 1.406 3.505 6.386-10.3 6.216-5.904-.916a2.999 2.999 0 0 1 1.961-1.289 2.986 2.986 0 0 1 2.287.523l.255.277Zm7.771-.297a2.974 2.974 0 0 1 3.399-.937 3.953 3.953 0 0 1 2.124 1.746c3.42 6.386-10.238 7.6-6.16-.107.168-.271.384-.51.637-.702Zm-10.62 9.324c2.889 2.895 4.014 4.45 7.944 4.066a29.028 29.028 0 0 0 2.612-2.767 3 3 0 0 1 4.248 0 3.014 3.014 0 0 1 0 4.257l-.637.724c-6.372 7.175-12.404 3.917-18.563-2.129a3.031 3.031 0 0 1 .127-4.279 3.016 3.016 0 0 1 4.27.128Z" fill="#9690D4"/></svg>