<svg width="100" height="100" fill="none" xmlns="http://www.w3.org/2000/svg"><path fill-rule="evenodd" clip-rule="evenodd" d="M51.552 21.03c14.048 0 25.707 8.763 33.18 20.42v31.613c0 20.252-1.18 17.724-21.675 18.58-11.112.464-25.862.941-36.524 0-7.137-.674-11.604-1.896-13.655-4.382-2.613-3.202-1.32-32.835-1.32-38.832 0-.167 0-.345-.002-.535-.038-4.784 1.419-9.556 4.941-12.794a53.384 53.384 0 0 1 35.055-14.07Z" fill="#B0C8EB"/><path fill-rule="evenodd" clip-rule="evenodd" d="M24.684 15.426c12.123-.182 42.818-1.278 57.287.857 4.383.646 5.38 4.017 5.38 7.12v45.138c0 20.252-1.18 17.724-21.675 18.58-11.112.464-25.862.942-36.595 0-7.122-.673-11.59-1.895-13.64-4.381-2.613-3.202-1.32-32.835-1.32-38.832 0-4.831-.731-19.255.336-23.033 1.237-4.452 5.704-5.393 10.227-5.449Z" fill="#fff"/><path fill-rule="evenodd" clip-rule="evenodd" d="M24.683 15.426c12.123-.182 42.818-1.278 57.287.857 4.383.646 5.38 4.017 5.38 7.12v13.89a1088.89 1088.89 0 0 0-73.357 0c-.155-6.11-.28-13.89.464-16.516 1.236-4.354 5.703-5.295 10.226-5.35Z" fill="#FAA8B7"/><path fill-rule="evenodd" clip-rule="evenodd" d="M31.623 28.529a6.35 6.35 0 0 0 6.228-7.587 6.347 6.347 0 0 0-8.658-4.626 6.35 6.35 0 0 0-3.92 5.865 6.36 6.36 0 0 0 6.35 6.348Z" fill="#DB8897"/><path fill-rule="evenodd" clip-rule="evenodd" d="M27.257 10.876c-1.11 2.078-.127 11.01 0 11.628a4.691 4.691 0 0 0 3.357 3.09 4.117 4.117 0 0 0 4.96-2.57c.786-3.048 1.404-10.716-.703-13.174-2.487-2.935-5.872-2.219-7.614 1.026Z" fill="#6B66A6"/><path fill-rule="evenodd" clip-rule="evenodd" d="M69.568 28.529a6.351 6.351 0 0 0 6.228-7.587 6.348 6.348 0 0 0-8.658-4.626 6.35 6.35 0 0 0-3.92 5.865 6.36 6.36 0 0 0 6.35 6.348Z" fill="#DB8897"/><path fill-rule="evenodd" clip-rule="evenodd" d="M65.437 10.876c-1.11 2.078-.127 11.01 0 11.628a4.747 4.747 0 0 0 3.357 3.09 4.103 4.103 0 0 0 4.959-2.57c.787-3.048 1.405-10.716-.689-13.174-2.5-2.935-5.871-2.219-7.627 1.026Z" fill="#6B66A6"/><path d="M32.27 44.778h-9.412a.674.674 0 0 0-.674.675v9.41c0 .371.301.673.674.673h9.412a.674.674 0 0 0 .674-.674v-9.41a.674.674 0 0 0-.674-.674Zm15.426 0h-9.412a.674.674 0 0 0-.675.675v9.41c0 .371.302.673.675.673h9.412a.674.674 0 0 0 .674-.674v-9.41a.674.674 0 0 0-.674-.674Zm14.339 0h-9.411a.674.674 0 0 0-.675.675v9.41c0 .371.302.673.675.673h9.411a.674.674 0 0 0 .675-.674v-9.41a.674.674 0 0 0-.675-.674Zm15.426 0H68.05a.674.674 0 0 0-.674.675v9.41c0 .371.302.673.674.673h9.412a.674.674 0 0 0 .675-.674v-9.41a.674.674 0 0 0-.675-.674ZM32.27 59.117h-9.412a.674.674 0 0 0-.674.674v9.41c0 .372.301.674.674.674h9.412a.674.674 0 0 0 .674-.674v-9.41a.674.674 0 0 0-.674-.674Zm15.426 0h-9.412a.674.674 0 0 0-.675.674v9.41c0 .372.302.674.675.674h9.412a.674.674 0 0 0 .674-.674v-9.41a.674.674 0 0 0-.674-.674Zm14.339 0h-9.411a.674.674 0 0 0-.675.674v9.41c0 .372.302.674.675.674h9.411a.674.674 0 0 0 .675-.674v-9.41a.674.674 0 0 0-.675-.674Z" fill="#CDE1FF"/><path d="M77.461 59.117H68.05a.674.674 0 0 0-.674.674v9.41c0 .372.302.674.674.674h9.412a.674.674 0 0 0 .675-.674v-9.41a.674.674 0 0 0-.675-.674Z" fill="#FAA8B7"/></svg>