<svg width="488" height="210" fill="none" xmlns="http://www.w3.org/2000/svg"><rect x="8" y="10" width="480" height="200" rx="20" fill="#CDE1FF"/><rect width="480" height="200" rx="20" fill="#fff"/><path d="M31.218 113v-9.8h2.254v6.384l4.676-6.384h2.128v9.8h-2.24v-6.37L33.36 113h-2.142Zm11.47 0v-7.532h2.17v2.94h3.276v-2.94h2.184V113h-2.184v-2.814h-3.276V113h-2.17Zm9.86 0v-7.532h2.17v2.94h3.277v-2.94h2.184V113h-2.184v-2.814h-3.276V113h-2.17Zm14.37 0v-1.47l-.14-.322v-2.632c0-.467-.145-.831-.434-1.092-.28-.261-.715-.392-1.302-.392-.402 0-.799.065-1.19.196-.383.121-.71.289-.98.504l-.785-1.526c.411-.289.906-.513 1.484-.672a6.627 6.627 0 0 1 1.764-.238c1.149 0 2.04.271 2.675.812.634.541.951 1.386.951 2.534V113h-2.043Zm-2.297.112c-.587 0-1.091-.098-1.511-.294a2.345 2.345 0 0 1-.966-.826 2.09 2.09 0 0 1-.337-1.162c0-.448.108-.84.322-1.176.224-.336.575-.597 1.05-.784.477-.196 1.097-.294 1.862-.294h2.002v1.274H65.28c-.513 0-.867.084-1.063.252a.812.812 0 0 0-.28.63c0 .28.107.504.321.672.224.159.528.238.91.238.364 0 .691-.084.98-.252.29-.177.5-.434.63-.77l.337 1.008a1.951 1.951 0 0 1-.868 1.106c-.42.252-.962.378-1.624.378ZM31.218 133v-9.8h1.876l4.172 6.916h-.994l4.102-6.916h1.876l.014 9.8h-2.128l-.014-6.538h.406l-3.29 5.502H36.23l-3.36-5.502h.476V133h-2.128Zm17.134.112c-.858 0-1.614-.168-2.267-.504a3.74 3.74 0 0 1-1.498-1.372c-.355-.588-.533-1.255-.533-2.002 0-.756.173-1.423.518-2.002a3.707 3.707 0 0 1 1.442-1.372c.607-.336 1.293-.504 2.058-.504.738 0 1.4.159 1.988.476a3.44 3.44 0 0 1 1.414 1.344c.346.579.519 1.274.519 2.086 0 .084-.005.182-.015.294a14.95 14.95 0 0 1-.028.294h-6.117v-1.274h4.97l-.84.378c0-.392-.08-.733-.239-1.022a1.693 1.693 0 0 0-.657-.672 1.868 1.868 0 0 0-.98-.252c-.374 0-.705.084-.995.252a1.66 1.66 0 0 0-.657.686c-.16.289-.239.635-.239 1.036v.336c0 .411.09.775.267 1.092.186.308.443.546.77.714.336.159.728.238 1.175.238a2.78 2.78 0 0 0 1.05-.182c.309-.121.589-.303.84-.546l1.163 1.26c-.346.392-.78.695-1.303.91-.522.205-1.124.308-1.806.308ZM62.66 133l-2.002-3.57 1.764-1.05L65.25 133h-2.59Zm-3.29-2.856v-1.75h2.617v1.75H59.37Zm3.276-.658-2.059-.224 2.17-3.794h2.31l-2.421 4.018ZM55.212 133h-2.577l2.815-4.62 1.764 1.05-2.002 3.57Zm4.801 0h-2.155v-7.532h2.156V133Zm-1.511-2.856h-2.605v-1.75h2.605v1.75Zm-3.277-.658-2.422-4.018h2.31l2.157 3.794-2.045.224Zm11.3 3.514v-7.532h2.17v4.48l3.668-4.48h2.002V133h-2.17v-4.48L68.54 133h-2.016Zm10.08 0v-7.532h2.17v2.94h3.275v-2.94h2.184V133H82.05v-2.814h-3.276V133h-2.17Zm14.368 0v-1.47l-.14-.322v-2.632c0-.467-.145-.831-.434-1.092-.28-.261-.714-.392-1.302-.392-.401 0-.798.065-1.19.196-.383.121-.71.289-.98.504l-.784-1.526c.41-.289.905-.513 1.484-.672a6.628 6.628 0 0 1 1.764-.238c1.148 0 2.04.271 2.674.812.635.541.952 1.386.952 2.534V133h-2.044Zm-2.296.112c-.588 0-1.092-.098-1.512-.294a2.345 2.345 0 0 1-.966-.826 2.09 2.09 0 0 1-.336-1.162c0-.448.107-.84.322-1.176.224-.336.574-.597 1.05-.784.476-.196 1.097-.294 1.862-.294h2.002v1.274h-1.764c-.513 0-.868.084-1.064.252a.813.813 0 0 0-.28.63c0 .28.107.504.322.672.224.159.527.238.91.238.364 0 .69-.084.98-.252.29-.177.5-.434.63-.77l.336 1.008a1.95 1.95 0 0 1-.868 1.106c-.42.252-.962.378-1.624.378Z" fill="#7872B9"/><path fill-rule="evenodd" clip-rule="evenodd" d="M72.85 38.791c15.137 4.444 19.222 23.622 14.072 36.713-5.15 13.092-24.116 16.816-39.246 12.34-15.13-4.476-19.59-19.634-14.416-32.718 5.174-13.084 24.46-20.779 39.59-16.335Z" fill="#CDE1FF"/><path fill-rule="evenodd" clip-rule="evenodd" d="m38.472 76.753-1.25 4.909c2.051 3.419 6.584 5.685 11.895 6.95 9.507 2.266 20.928 1.954 29.37-3.459l4.269-3.107.12-.128.216-.256c-.513-.937-.801-3.363-1.257-4.62a6.91 6.91 0 0 0-2.491-3.291 30.377 30.377 0 0 0-7.209-4.18l-3.404-1.49c.465 2.595-.576 4.973-3.275 5.07-3.004.111-4.286-2.283-5.319-3.26-.496.465-.496.633-1.04 1.193-4.054 4.14-8.459 1.602-7.554-2.994a60.882 60.882 0 0 0-7.44 3.49 21.936 21.936 0 0 0-3.284 2.259 14.269 14.269 0 0 0-2.347 2.914Z" fill="#FAA8B7"/><path fill-rule="evenodd" clip-rule="evenodd" d="M46.234 44.877a5.84 5.84 0 0 0 4.445-3.091c.312.592.2 1.65 1.145 2.402 1.898 1.481 5.871.056 7.601-2.034-.128 2.49 0 4.284 1.73 5.197 2.523 1.361 3.364-.705 5.478-.705 3.725 0 4.19 7.295-.92 7.703V65c1.425.6 2.218 1.761 3.01 3.107l3.405 1.489c.376-1.09 2.475-5.037 3.724-8.536 3.564-9.993 3.757-21.043-4.277-27.64-4.67-3.836-13.135-4.493-19.294-1.722-4.39 1.953-12.463 9.296-6.047 13.18Z" fill="#645F9E"/><path fill-rule="evenodd" clip-rule="evenodd" d="M46.234 44.877c0 1.77-.232 3.627-.2 5.524.032 1.898.369 3.5.513 5.293.857 2.106.8 3.444 2.299 5.093 1.497 1.65 2.835 2.258 5.758 1.874a22.161 22.161 0 0 0 4.341-1.21c.97-.376 3.02-1.545 3.588-1.681-.632.552-1.858 4.428-7.929 4.684v.537c.176 2.066.088 2.402 1.69 3.155a9.02 9.02 0 0 0 7.785 0c1.642-.801 1.482-1.105 1.682-3.203v-10.65c5.11-.408 4.646-7.71.921-7.703-2.114 0-2.955 2.066-5.478.705-1.69-.913-1.858-2.707-1.73-5.197-1.73 2.09-5.703 3.515-7.6 2.034-.946-.729-.802-1.786-1.146-2.402a5.837 5.837 0 0 1-4.494 3.147Z" fill="#FDD3D4"/><path fill-rule="evenodd" clip-rule="evenodd" d="M38.473 76.754a14.272 14.272 0 0 1 2.403-2.915 21.938 21.938 0 0 1 3.284-2.258 60.881 60.881 0 0 1 7.44-3.491c.681-1.153 1.738-2.683 3.02-3.1v-2.328c-2.923.384-4.341-.28-5.759-1.874-1.417-1.593-1.441-2.987-2.298-5.093-.497 1.057-3.34 2.923-4.67 3.924-3.556 2.69-6.271 5.973-5.855 11.074.153 2.034 1.178 5.005 2.435 6.062Z" fill="#645F9E"/><path fill-rule="evenodd" clip-rule="evenodd" d="M51.569 68.09c-.905 4.612 3.5 7.134 7.552 2.994.545-.56.545-.728 1.042-1.193 1.033.977 2.314 3.371 5.318 3.26 2.699-.097 3.74-2.475 3.276-5.07-.801-1.345-1.602-2.506-3.012-3.106-.2 2.082-.04 2.402-1.682 3.203a9.02 9.02 0 0 1-7.785 0c-1.602-.737-1.514-1.09-1.69-3.155-1.297.368-2.339 1.914-3.02 3.067Z" fill="#6B66A6"/><path fill-rule="evenodd" clip-rule="evenodd" d="M54.602 62.66v1.794c6.07-.256 7.296-4.131 7.929-4.684-.569.136-2.62 1.305-3.588 1.681-1.402.55-2.857.955-4.341 1.21Z" fill="#E8B7B8"/><rect x="30" y="146" width="80" height="10" rx="5" fill="#EBF5FF"/><rect x="30" y="166" width="60" height="10" rx="5" fill="#EBF5FF"/><rect x="150" y="30" width="30" height="30" rx="5" fill="#EBF5FF"/><rect x="200" y="30" width="30" height="30" rx="5" fill="#FA788C"/><rect x="250" y="30" width="30" height="30" rx="5" fill="#EBF5FF"/><rect x="150" y="80" width="30" height="30" rx="5" fill="#EBF5FF"/><rect x="200" y="80" width="30" height="30" rx="5" fill="#EBF5FF"/><rect x="250" y="80" width="30" height="30" rx="5" fill="#FA788C"/><rect x="300" y="30" width="30" height="30" rx="5" fill="#EBF5FF"/><rect x="300" y="80" width="30" height="30" rx="5" fill="#EBF5FF"/><rect x="150" y="130" width="30" height="30" rx="5" fill="#FA788C"/><rect x="200" y="130" width="30" height="30" rx="5" fill="#EBF5FF"/><rect x="250" y="130" width="30" height="30" rx="5" fill="#FA788C"/><rect x="300" y="130" width="30" height="30" rx="5" fill="#EBF5FF"/><rect x="350" y="30" width="30" height="30" rx="5" fill="#FA788C"/><rect x="350" y="80" width="30" height="30" rx="5" fill="#EBF5FF"/><rect x="400" y="30" width="30" height="30" rx="5" fill="#EBF5FF"/><rect x="400" y="80" width="30" height="30" rx="5" fill="#FA788C"/><rect x="350" y="130" width="30" height="30" rx="5" fill="#EBF5FF"/><rect x="400" y="130" width="30" height="30" rx="5" fill="#EBF5FF"/></svg>