<svg width="40" height="40" fill="none" xmlns="http://www.w3.org/2000/svg"><path d="M9.04 27.62c6.15-9.246 14.5-16.292 22.848-23.378 1.14-.978 2.28-1.996 3.829-2.24 1.75-.285 3.299.122 4.032 1.995.773 1.996-.57 2.485-2.078 3.177-3.584 1.67-6.23 4.684-9.082 7.29-4.765 4.358-9.693 8.553-13.236 14.01-1.385 2.159-2.81 4.277-3.34 6.842-.204 1.1-.488 2.118-1.71 2.363-1.426.325-2.24-.693-2.933-1.67-1.832-2.77-3.258-5.743-4.48-8.797-.814-2.077-1.466-4.236-2.199-6.354-.285-.774-.326-1.547.407-1.995.937-.611 1.792-.123 2.322.651.774 1.1 1.426 2.28 2.036 3.462.896 1.711 1.466 3.625 3.584 4.643Z" fill="#FACD6E"/></svg>