<svg width="578" height="544" fill="none" xmlns="http://www.w3.org/2000/svg"><g clip-path="url(#a)"><path d="M564.303 36.522H315.565c-4.668 0-8.452 3.768-8.452 8.416v346.585c0 4.648 3.784 8.416 8.452 8.416h248.738c4.667 0 8.451-3.768 8.451-8.416V44.938c0-4.648-3.784-8.416-8.451-8.416Z" fill="#FFCE70"/><path d="M546.188 55.987H333.597c-3.997 0-7.238 3.227-7.238 7.208v308.431c0 3.981 3.241 7.208 7.238 7.208h212.591c3.998 0 7.238-3.227 7.238-7.208V63.196c0-3.982-3.24-7.209-7.238-7.209Z" fill="#F0E5F6"/><path d="M415.815 390.056c42.033 0 76.108-47.074 76.108-105.141 0-58.068-34.075-105.141-76.108-105.141s-76.108 47.073-76.108 105.141c0 58.067 34.075 105.141 76.108 105.141Z" fill="#fff"/><path fill-rule="evenodd" clip-rule="evenodd" d="M475.668 175.113a67.514 67.514 0 0 1 31.38 14.977c14.302 13.423 23.448 37.118 5.764 39.32-9.838 1.208-35.15 2.287-44.165-2.202-13.999-7.035-12.526-44.067 3.684-49.635.39-.173 2.861-2.806 3.337-2.46Z" fill="#fff"/><path fill-rule="evenodd" clip-rule="evenodd" d="M296.408 68.59c6.545-.863 4.594-4.834 22.235-4.834 16.123 0 45.595 21.797 50.666 39.061 1.82 6.216 5.504 10.488 8.408 21.322 7.802 29.35 21.324 38.111 22.321 73.374.433 15.107-16.21 64.397-24.315 74.151-16.209 19.595-23.361 23.739-49.452 31.853-27.652 8.632-82.349 9.539-112.212 7.597a24.707 24.707 0 0 1-13.65-6.483 24.534 24.534 0 0 1-7.284-13.199c-1.907-16.358-19.46-13.768-14.129-47.65 2.557-16.185 9.795-2.201 2.34-34.227-7.671-32.932 50.753-83.387 58.295-108.766 11.269-37.378 35.236-29.35 56.777-32.199Z" fill="#4B4680"/><path fill-rule="evenodd" clip-rule="evenodd" d="M266.892 118.312c-.953-.604.651 2.978 2.601 6.259 6.891 11.61-3.554 32.932 17.943 51.318a256.812 256.812 0 0 0 33.59-23.177c10.142-8.632 18.724-18.732 27.999-27.796.091-.179.163-.367.217-.561 2.297-5.179 6.934-14.545 0-18.603-9.709-5.826-8.365 7.856-8.235 10.618 0 .767-.306 1.503-.851 2.045a2.91 2.91 0 0 1-4.107 0 2.887 2.887 0 0 1-.85-2.045c-6.631-24.818-26.872-11.265-41.131-23.091-4.031 9.97-25.875 25.897-27.176 25.033Z" fill="#FCD2D3"/><path fill-rule="evenodd" clip-rule="evenodd" d="M274.956 250.99c-10.402 11.697-13.002 22.401-31.639 39.838-19.677 18.603-26.309 52.657-29.993 81.359-8.928 72.338 116.589 83.172 156.42 64.742 28.606-12.948 53.527-77 73.681-83.344 56.084-17.524-32.463-67.893-56.344-69.058-27.435-1.295-66.66-27.883-110.391-31.681l-1.734-1.856Z" fill="#EBF5FF"/><path fill-rule="evenodd" clip-rule="evenodd" d="M256.015 253.148c.78 13.337 10.965 59.994 27.955 59.994 45.639 0 11.572 30.904 64.406 29.091 9.492-.259 26.265-8.891 25.311-18.732-1.083-11.524 38.575-1.079 44.079-9.884 17.337-27.58-15.473-36.169 37.577-70.18 27.175-17.265 3.684-35.22 23.578-57.966 15.993-18.343-5.461-13.38 6.631-43.161 12.569-30.731-12.179-27.192-25.571-46.269-8.279-11.826-42.085-17.264-54.134-12.128-17.033 7.596-29.256 19.466-43.342 29.565-15.083 10.704-26.525 26.674-41.261 38.845-43.212 36.558-69.563 24.991-65.229 100.825Z" fill="#7872B8"/><path fill-rule="evenodd" clip-rule="evenodd" d="M513.204 228.158c-8.669-3.453-25.052-8.849-35.324-2.763-6.588 22.271-41.911 70.396-61.891 77.216-11.399 3.884-20.674 5.568-31.987.949-5.331-2.201-16.036 2.547-23.014 3.496-4.334.605-18.55 0-18.55 1.209-.39 9.495 11.095 7.078 18.767 8.632 7.671 1.554 10.878 5.136 2.947 10.143-4.074 2.59-10.532 4.316-15.343 6.69-2.861 1.511-13.913 4.316-20.804 6.776-8.278 2.892-6.285 6.216.563 7.036 10.619 1.294 29.169-9.841 29.993-3.108.823 6.733-36.19 10.359-22.971 18.257 4.334 2.504 36.797-12.042 33.936-10.013-4.594 3.28-26.308 9.754-23.404 18.041 4.681 4.316 27.002-12.43 31.769-12.948 6.501-.691-10.055 12.085-11.659 15.495-1.603 3.409-1.603 6.819 10.532.259 16.73-9.107 18.811-24.818 38.488-31.81a137.291 137.291 0 0 0 50.363-31.983c22.797-23.868 35.496-54.814 47.589-81.574Z" fill="#FCD2D3"/><path fill-rule="evenodd" clip-rule="evenodd" d="M262.04 283.275c.304 33.925 7.152 68.324 35.584 66.943 5.764-.302 14.259 7.769 20.5 11.006 3.858 1.986 17.337 6.345 17.077 7.338-2.817 9.02-13.003 2.935-20.544 1.769-7.542-1.165-12.006 1.252-6.198 8.633 2.991 3.798 8.668 7.423 12.179 11.437 2.21 2.374 11.659 8.633 17.337 13.337 6.804 5.482 3.814 7.942-2.904 6.431-10.445-2.331-24.141-19.034-27.219-12.948-3.077 6.086 30.599 21.883 15.517 24.904-4.768.949-30.643-23.653-28.606-20.761 3.207 4.575 21.671 17.912 15.95 24.775-5.851 2.503-21.238-20.718-25.572-22.746-5.894-2.806 5.418 14.718 5.808 18.473.39 3.755-.823 6.992-10.055-3.28-12.699-14.114-8.322-33.148-23.318-47.478-36.017-34.788-50.97-123.7.867-161.639a141.366 141.366 0 0 0-2.427 43.679 148.416 148.416 0 0 0 6.024 30.127ZM513.421 236.1c-1.733 40.01-16.08 82.999-52.01 105.054 0 0-3.38-7.898-6.024-14.07a113.805 113.805 0 0 0 10.575-9.625c22.798-23.869 35.454-54.815 47.676-81.575l-.217.216Z" fill="#FCD2D3"/><path fill-rule="evenodd" clip-rule="evenodd" d="M374.596 17.962a14.363 14.363 0 0 1-5.631 9.277 14.477 14.477 0 0 1-10.536 2.722 15.442 15.442 0 0 1-9.779-5.708 15.32 15.32 0 0 1-3.223-10.823 15.186 15.186 0 0 1 6.171-9.631 15.304 15.304 0 0 1 11.165-2.627c1.908.27 3.738.93 5.378 1.937a13.976 13.976 0 0 1 4.151 3.916 13.899 13.899 0 0 1 2.174 10.937h.13Zm35.193-5.309c.176-.74.505-1.437.966-2.044a5.504 5.504 0 0 1 3.878-2.152 5.523 5.523 0 0 1 4.211 1.398 5.472 5.472 0 0 1 1.347 6.251 5.66 5.66 0 0 1-2.817 3.125 5.7 5.7 0 0 1-4.204.328 5.58 5.58 0 0 1-3.078-2.779 5.545 5.545 0 0 1-.303-4.127Zm83.259 40.14a13.454 13.454 0 0 1 3.61-3.863 13.536 13.536 0 0 1 15.071-.452 12.996 12.996 0 0 1 3.864 3.467 12.933 12.933 0 0 1 2.19 4.698 12.916 12.916 0 0 1-1.72 10.005 13.394 13.394 0 0 1-8.068 5.689 13.442 13.442 0 0 1-9.789-1.373 13.69 13.69 0 0 1-6.231-8.057 13.634 13.634 0 0 1 1.073-10.114Zm71.081 158.359a10.646 10.646 0 0 1 11.751 4.046 10.55 10.55 0 0 1 1.728 4.025 9.63 9.63 0 0 1-1.19 8.203 9.682 9.682 0 0 1-3.083 2.935 9.728 9.728 0 0 1-4.049 1.336 10.784 10.784 0 0 1-7.579-1.292 10.712 10.712 0 0 1-4.773-6.002 11.312 11.312 0 0 1 1.072-7.985 11.386 11.386 0 0 1 6.123-5.266Zm-3.554-49.722a4.866 4.866 0 0 1-5.094-1.774 4.81 4.81 0 0 1-.822-1.7 4.806 4.806 0 0 1 .519-3.666 4.85 4.85 0 0 1 2.97-2.226 5.35 5.35 0 0 1 3.842.328 5.316 5.316 0 0 1 2.615 2.823 5.63 5.63 0 0 1-.943 3.697 5.675 5.675 0 0 1-3.087 2.259v.259ZM485.074 61.426c6.457-11.524 1.733-21.581-7.759-29.393 0 0-1.213-.863-1.473-1.036-10.099-6.863-25.355-8.373-32.333 3.54-6.371 10.962 0 23.35 9.448 29.91l1.387.863c11.052 6.215 22.495 7.165 30.73-3.884Zm-97.996-27.322a7.391 7.391 0 0 0-.374-5.785 7.432 7.432 0 0 0-4.437-3.753 7.616 7.616 0 0 0-5.686 1.408 7.56 7.56 0 0 0-1.998 2.213 7.518 7.518 0 0 0-.984 2.81 7.828 7.828 0 0 0 .7 5.668 7.883 7.883 0 0 0 4.371 3.698 7.78 7.78 0 0 0 5.428-1.498 7.72 7.72 0 0 0 2.98-4.76Z" fill="#7872B8"/></g><path fill-rule="evenodd" clip-rule="evenodd" d="M65.5 173.491a5.587 5.587 0 0 1-4.316-4.877 5.588 5.588 0 0 1 3.242-5.649 5.582 5.582 0 0 1 4.503-.055 5.76 5.76 0 0 1 3.577 7.093 5.67 5.67 0 0 1-7.006 3.488Zm45.388-71.033c-11.794-6.453-21.997-1.575-29.874 8.12 0 0-.869 1.239-1.042 1.504-6.905 10.303-4.663 20.04 7.53 27.017 11.222 6.37 23.786-.199 30.388-9.839l.867-1.414c6.237-11.265 3.456-17.129-7.869-25.388Zm-23.344 93.889a7.56 7.56 0 0 0-9.675 4.961 7.695 7.695 0 0 0 6.624 8.739 8.005 8.005 0 0 0 9.497-5.224 7.871 7.871 0 0 0-6.446-8.476ZM266.378 15.238a10.762 10.762 0 0 1 1.009-8.667 10.782 10.782 0 0 1 7.097-5.075 9.85 9.85 0 0 1 12.777 8.335 10.907 10.907 0 0 1-7.325 12.592 11.564 11.564 0 0 1-13.558-7.185Zm-50.617 4.029a4.925 4.925 0 0 1-5.407 6.155 4.93 4.93 0 0 1-4.113-3.614 5.412 5.412 0 0 1 3.155-6.577 5.76 5.76 0 0 1 3.774.926c1.113.736 2.199 1.834 2.591 3.11ZM124.526 44.83a13.68 13.68 0 0 1-6.873-13.665c.23-1.795.814-3.526 1.718-5.093a13.184 13.184 0 0 1 13.328-6.849c1.762.23 3.459.813 4.99 1.714a13.59 13.59 0 0 1 5.121 17.924 13.936 13.936 0 0 1-18.284 5.969ZM7.376 149.945a13.29 13.29 0 0 1-6.312-8.07c-.926-3.369.144-6.911 1.55-10.108.256-.583.51-1.098.797-1.597a12.823 12.823 0 0 1 7.838-6.287 12.82 12.82 0 0 1 9.966 1.298 13.205 13.205 0 0 1 5.947 7.722c.925 3.238-.467 8.25-2.015 11.241a13.543 13.543 0 0 1-17.77 5.801Z" fill="#EBF5FF"/><path fill-rule="evenodd" clip-rule="evenodd" d="M546.498 471.313c18.131 0 30.592 22.344 30.592 40.479 0 18.135-18.836 29.641-36.955 29.641-18.118 0-29.319-17.253-29.319-35.375s17.564-34.745 35.682-34.745Z" fill="#CDE1FF"/><path fill-rule="evenodd" clip-rule="evenodd" d="M550.276 471.654c8.983 1.588 16.304 8.683 21.016 17.643a16.082 16.082 0 0 1-5.128 9.666c3.578 9.288 1.713 20.643-4.498 27.725-10.584 12.161-36.539 7.826-37.723 7.373l-1.26.806c-7.56-6.666-11.894-17.555-11.894-28.796a32.55 32.55 0 0 1 6.665-19.068c6.489-3.377 14.565-4.65 22.364-4.196a16.152 16.152 0 0 1 10.458-11.153Z" fill="#B0C8EB"/><path fill-rule="evenodd" clip-rule="evenodd" d="M509.431 524.886c-.554 2.974-2.923 8.822.907 8.822 2.76 0 4.851-1.953 8.114-3.982 1.134.441 27.152 4.776 37.723-7.373 10.571-12.148 8.518-36.862-11.881-42.293-19.101-5.041-46.039.882-45.673 25.003.113 7.952 3.414 14.845 7.912 18.248a11.62 11.62 0 0 0 2.898 1.575Z" fill="#FFCF70"/><path d="M531.314 494.275h-18.232c-.71 0-1.285.575-1.285 1.285v2.71c0 .71.575 1.285 1.285 1.285h18.232c.709 0 1.285-.575 1.285-1.285v-2.71c0-.71-.576-1.285-1.285-1.285Zm16.706 9.086h-34.938c-.71 0-1.285.576-1.285 1.286v2.709c0 .71.575 1.285 1.285 1.285h34.938c.71 0 1.286-.575 1.286-1.285v-2.709c0-.71-.576-1.286-1.286-1.286Zm0 9.087h-34.938c-.71 0-1.285.575-1.285 1.285v2.709c0 .71.575 1.286 1.285 1.286h34.938c.71 0 1.286-.576 1.286-1.286v-2.709c0-.71-.576-1.285-1.286-1.285Z" fill="#fff"/><path fill-rule="evenodd" clip-rule="evenodd" d="M549.85 498.698a16.11 16.11 0 0 0 14.879-9.959 16.12 16.12 0 0 0-11.752-21.969 16.113 16.113 0 0 0-19.254 15.81 16.157 16.157 0 0 0 16.127 16.118Z" fill="#FAA8B7"/><path fill-rule="evenodd" clip-rule="evenodd" d="M551.474 476.38a37.766 37.766 0 0 0-.239 5.986c.031 1.937.276 3.864.731 5.747 0 .176.088.365.138.554.045.183.079.368.101.555a.768.768 0 0 1-.416.73 2.422 2.422 0 0 1-.945.24 4.475 4.475 0 0 1-1.083-.088 2.085 2.085 0 0 1-.756-.252 1.643 1.643 0 0 1-.605-.794 7.482 7.482 0 0 1-.328-1.034 16.208 16.208 0 0 1-.352-2.52 40.336 40.336 0 0 1-.152-3.088 16.521 16.521 0 0 1 0-1.94 5.913 5.913 0 0 1-2.393-.316c-1.26-.617-.215-1.751.415-2.293 1.109-.958 3.138-2.659 3.213-2.697.248-.12.518-.189.794-.202.277-.025.555-.025.832 0 .304.021.595.135.831.328a1.25 1.25 0 0 1 .214 1.084Z" fill="#fff"/><defs><clipPath id="a"><path fill="#fff" transform="translate(178 1)" d="M0 0h400v444H0z"/></clipPath></defs></svg>