<svg width="170" height="44" fill="none" xmlns="http://www.w3.org/2000/svg"><g clip-path="url(#a)" fill="#7872B9"><path fill-rule="evenodd" clip-rule="evenodd" d="M166.678 17.456c.657 0 1.299.198 1.845.568.547.371.972.898 1.224 1.515a3.43 3.43 0 0 1 .189 1.95 3.395 3.395 0 0 1-.909 1.728 3.31 3.31 0 0 1-1.701.924 3.275 3.275 0 0 1-1.92-.192 3.334 3.334 0 0 1-1.491-1.243 3.414 3.414 0 0 1 .413-4.262 3.298 3.298 0 0 1 2.35-.988Z"/><path fill-rule="evenodd" clip-rule="evenodd" d="M163.499 25.291h6.364a20.833 20.833 0 0 1-2.254 8.114 13.513 13.513 0 0 1-4.306 5.181 6.01 6.01 0 0 1-3.172 1.066 4.295 4.295 0 0 1-2.215-.576c-2.032-1.27-3.257-4.103-3.257-6.42V29.23c-.032-1.43.118-2.919-.605-4.203a2.962 2.962 0 0 0-1.037-1.135 2.898 2.898 0 0 0-1.458-.453h-.274c-1.439.199-2.364 1.562-2.605 2.919-.083.46-.113.929-.091 1.396v10.76h-5.322V28.27a9.35 9.35 0 0 0-.098-1.906c-.306-1.469-1.387-2.918-2.983-2.918h-.17a3.24 3.24 0 0 0-1.657.826 3.32 3.32 0 0 0-.948 1.61 9.315 9.315 0 0 0-.274 2.884v9.848h-5.361V18.488h5.309v4.666l.651-1.364c.99-2.104 2.899-3.772 5.283-3.772 2.658 0 4.69 2.052 5.57 4.467l.319.86.312-.86c.886-2.415 2.919-4.467 5.57-4.467a5.756 5.756 0 0 1 2.219.537 5.808 5.808 0 0 1 1.845 1.363 6.783 6.783 0 0 1 1.876 4.632v6.2c0 .58.086 1.155.255 1.708.338 1.132 1.061 2.25 2.546 2.237v-9.404h-.032Zm-92.615 4.48a7.253 7.253 0 0 1-1.628-2.825 11.899 11.899 0 0 1-.587-3.878v-4.514h5.791v4.19c.052 4.996 4.88 5.022 4.977 0V18.54h5.328v4.513c0 2.734-.73 4.984-2.09 6.565-2.75 3.197-9.12 2.958-11.79.14v.012Zm47.128 9.927a8.44 8.44 0 0 1-3.344-.527 8.536 8.536 0 0 1-2.883-1.802 7.463 7.463 0 0 1-1.752-2.833 11.021 11.021 0 0 1-.652-3.871V18.548h5.759V30.34c0 1.541.28 2.587.931 3.255a2.483 2.483 0 0 0 1.954.735 2.56 2.56 0 0 0 1.204-.22 2.61 2.61 0 0 0 .972-.753 4.763 4.763 0 0 0 .795-3.017V18.548h5.732v12.124c0 2.733-.769 4.99-2.247 6.558a6.802 6.802 0 0 1-2.71 1.806 9.779 9.779 0 0 1-3.746.662h-.013Zm-21.242-.907a10.567 10.567 0 0 1-4.025-.76 9.11 9.11 0 0 1-3.133-2.112 9.412 9.412 0 0 1-2.04-3.308 12.265 12.265 0 0 1 0-8.438 9.352 9.352 0 0 1 2.023-3.265 9.176 9.176 0 0 1 3.15-2.155 11.027 11.027 0 0 1 8.051 0 9.183 9.183 0 0 1 3.15 2.155 9.362 9.362 0 0 1 2.022 3.265 12.252 12.252 0 0 1 0 8.438 9.244 9.244 0 0 1-2.039 3.256 9.174 9.174 0 0 1-3.133 2.137c-1.28.516-2.648.775-4.026.761v.026Zm-.143-14.876a3.856 3.856 0 0 0-1.627.334c-.512.228-.97.566-1.343.99a5.132 5.132 0 0 0-1.172 3.268c0 1.196.415 2.354 1.172 3.27.375.421.833.757 1.345.985a3.9 3.9 0 0 0 1.625.338 3.815 3.815 0 0 0 1.642-.325c.518-.228.98-.57 1.355-.998a5.107 5.107 0 0 0 1.172-3.26 5.107 5.107 0 0 0-1.172-3.259 3.912 3.912 0 0 0-1.343-.997 3.855 3.855 0 0 0-1.628-.34l-.026-.006Z"/><path d="M79.567 28.104h-5.31v10.502h5.31V28.104Z"/><path fill-rule="evenodd" clip-rule="evenodd" d="M44.156-.035a6.866 6.866 0 0 1 3.86 1.186 7.032 7.032 0 0 1 2.56 3.164 7.16 7.16 0 0 1 .398 4.077 7.09 7.09 0 0 1-1.9 3.614 6.91 6.91 0 0 1-3.554 1.932 6.843 6.843 0 0 1-4.013-.4 6.97 6.97 0 0 1-3.118-2.598 7.136 7.136 0 0 1-1.17-3.92c0-1.87.73-3.664 2.031-4.987a6.89 6.89 0 0 1 4.906-2.068Zm-5.965 17.054h11.966c-.417 6.38-3.016 14.93-7.686 20.614-3.055 3.713-6.742 6.48-11.074 6.347a7.22 7.22 0 0 1-1.036-.113 8.71 8.71 0 0 1-5.543-3.593c-2.234-2.971-2.606-5.34-3.257-8.12-1.303-6.022-7.374-6.155-9.12-.986a13.265 13.265 0 0 0-.364 4.076v8.75H0v-9.425c.065-10.515 7.458-19.191 18.044-18.53 6.403.404 11.822 4.871 14.278 10.867.912 2.224.977 4.818 2.651 6.525.415.438.916.782 1.47 1.01a4.2 4.2 0 0 0 1.748.314V17.019ZM16.858-.009c1.373 0 2.716.414 3.858 1.19a7.032 7.032 0 0 1 2.558 3.167 7.16 7.16 0 0 1 .394 4.077 7.09 7.09 0 0 1-1.902 3.611 6.91 6.91 0 0 1-3.557 1.93 6.843 6.843 0 0 1-4.013-.404 6.97 6.97 0 0 1-3.115-2.602 7.135 7.135 0 0 1-1.167-3.92c0-.927.18-1.844.529-2.7a7.055 7.055 0 0 1 1.505-2.287A6.93 6.93 0 0 1 14.201.526a6.843 6.843 0 0 1 2.657-.535Z"/></g><defs><clipPath id="a"><path fill="#fff" d="M0 0h170v44H0z"/></clipPath></defs></svg>