<svg width="220" height="220" fill="none" xmlns="http://www.w3.org/2000/svg"><path d="M130.669 199.249c44.119-9.33 66.828-29.539 73.748-66.102 3.439-18.172 1.553-37.412-7.073-53.772-20.385-38.66-64.596-60.782-109.474-51.292C33.673 39.544.324 67.67 11.785 121.867c11.46 54.198 64.687 88.842 118.884 77.382Z" fill="#CDE1FF"/><path d="M128.836 181.3c44.599-10.494 72.247-55.155 61.753-99.754-10.493-44.599-55.154-72.247-99.753-61.754-44.6 10.494-72.247 55.155-61.754 99.754 10.494 44.599 55.155 72.247 99.754 61.754Z" fill="#7872B9"/><path fill-rule="evenodd" clip-rule="evenodd" d="M110.089 17a83.181 83.181 0 0 1 73.163 43.61A86.1 86.1 0 0 1 184 71.887a83.098 83.098 0 0 1-17.535 51.062 83.119 83.119 0 0 1-99.02 25.03 83.116 83.116 0 0 1-39.697-36.595A85.67 85.67 0 0 1 27 100.107a83.102 83.102 0 0 1 24.334-58.755A83.123 83.123 0 0 1 110.09 17Z" fill="#9690D4"/><path fill-rule="evenodd" clip-rule="evenodd" d="M159.528 33a83.036 83.036 0 0 1 22.037 24.706 83.985 83.985 0 0 1 10.727 31.457 84.288 84.288 0 0 1-2.293 33.195A83.735 83.735 0 0 1 175.051 152a35.857 35.857 0 0 1-5.707-5.772 63.912 63.912 0 0 0-1.056-12.7c-4.024-5.917.371-12.873-1.056-14.951-7.733-11.372 3.824-19.8-18.833-19.28-5.45 0-18.719-11.083-17.292-16.394 0-.433 14.267-11.545 14.438-16.047-7.533-2.887-.884-11.055 2.14-10.94 6.992.232 4.024-6.638 1.77-7.244-8.276-2.25-6.706-7.158-4.166-8.139 8.075-3.175 5.707 1.386 7.561 5.773 1.113 2.886 15.238-2.05 8.903-5.311-6.335-3.262-5.393-6.292-2.225-7.995Zm-86.192-6.582c.428.89.856 1.091 5.252-1.522 2.684-1.608 3.14 2.871.686 3.503-.486 1.178 3.825.862 3.425-2.527-.285-2.269 5.71-2.584 4.682-.345-2.512 5.543 32.373-8.615 20.326 6.605-2.398 2.872-6.737 1.35-8.393 1.953-.857 4.107 6.166 0 5.567 12.665-.172 3.877 6.737 6.117-7.052 4.94-5.11-.46 1.456 5.053-7.85 5.743-8.564.545-23.21 17.718-23.438 17.718-5.88 0-2.683-10.022-15.215 8.845-4.71 7.065 13.988-3.388 14.273 7.065.343 16.426 14.874-3.79 19.755 5.227 4.454 8.241 10.677-.431 14.274 8.241 3.34 8.128 1.941 3.303 9.478 5.888 9.306 3.187 5.252 6.174 7.136 6.834.743-2.871 4.225 1.752 2.056 5.744-7.365 13.153-1.856 11.774-4.482 16.714a58.734 58.734 0 0 1-5.995 2.871c0 11.487-1.285 6.663-9.42 14.359-2.342 2.24-8.565-1.522 0 12.722 2.197 3.618-1.257 10.999-11.248-2.24-6.795-8.989-.885-14.359-7.423-25.272-6.794-11.257 4.14-17.747-6.937-22.256-8.221-3.388-1.085-13.583-1.142-14.157-.485-4.05-13.245-1.522-20.354-12.78-3.054-4.824-9.05.173-12.104-10.28-1.513-5.141-1.285-4.768-8.193-8.041a83.398 83.398 0 0 1 16.353-28.387 82.838 82.838 0 0 1 25.983-19.83Z" fill="#FFCF70"/><path fill-rule="evenodd" clip-rule="evenodd" d="M158.853 33c9.672 7.35 17.661 16.78 23.41 27.63.489 3.78.735 7.59.737 11.402.039 17.99-5.577 35.513-16.013 49.968a4.172 4.172 0 0 0 0-2.909c-7.681-11.459 3.797-19.952-18.706-19.428-5.413 0-18.592-11.169-17.175-16.52 0-.437 14.171-11.635 14.341-16.172-7.482-2.908-.879-11.14 2.126-11.023 6.943.233 3.996-6.69 1.757-7.3-8.219-2.269-6.661-7.213-4.138-8.202 8.021-3.2 5.668 1.396 7.51 5.817 1.106 2.908 15.135-2.065 8.843-5.352-6.292-3.287-5.555-6.166-2.692-7.911ZM98.252 155a84.135 84.135 0 0 1-15.296-1.772 24.41 24.41 0 0 0-3.623-12.86c-6.843-11.174 4.17-17.633-6.987-22.149-8.28-3.343-1.092-13.517-1.15-14.089-.489-4.029-13.341-1.486-20.5-12.717-3.077-4.801-9.115.171-12.192-10.203-1.466-4.944-1.322-4.772-7.504-7.688a82.77 82.77 0 0 1 16.57-28.004 83.34 83.34 0 0 1 26.128-19.522c.575 0 1.667-.4 4.14-1.829l1.524-.6c1.725 0 1.754 3.372-.374 3.83-.489 1.143 3.853.828 3.45-2.544-.287-2.229 5.75-2.572 4.716-.343-2.53 5.516 32.605-8.573 20.472 6.573-2.416 3.03-6.786 1.372-8.454 1.944-.862 4.086 6.211 0 5.607 12.603-.172 3.858 6.786 6.116-7.102 4.915-5.147-.457 1.467 5.03-7.907 5.716-8.626.572-23.376 17.633-23.606 17.633-5.923 0-2.702-9.974-15.325 8.802-4.744 7.03 14.089-3.372 14.377 7.06.345 16.317 14.98-3.802 19.896 5.172 4.486 8.202 10.754-.429 14.377 8.202 3.364 8.088 1.955 3.286 9.545 5.716 9.374 3.2 5.291 6.173 7.189 6.83.747-2.858 4.255 1.715 2.07 5.573-7.418 13.117-1.869 11.746-4.514 16.632a59.22 59.22 0 0 1-6.038 2.858c-.115 11.26-1.381 6.545-9.489 14.261Z" fill="#FFDB94"/></svg>