<svg width="488" height="210" fill="none" xmlns="http://www.w3.org/2000/svg"><rect x="8" y="10" width="480" height="200" rx="20" fill="#CDE1FF"/><rect width="480" height="200" rx="20" fill="#fff"/><path d="M47.35 31.346a9.299 9.299 0 0 1-1.4.448c-.448.093-.877.14-1.288.14-1.316 0-2.324-.313-3.024-.938-.7-.635-1.05-1.545-1.05-2.73V25.2h2.24v2.814c0 .672.182 1.18.546 1.526.364.336.882.504 1.554.504.43 0 .845-.047 1.246-.14a4.897 4.897 0 0 0 1.12-.434l.056 1.876ZM47.028 35v-9.8h2.24V35h-2.24Zm6.258 0v-6.244l.49.504h-3.038v-1.792h7.266v1.792h-3.038l.49-.504V35h-2.17Zm9.236.112c-.803 0-1.517-.168-2.142-.504a3.923 3.923 0 0 1-1.47-1.372c-.355-.588-.532-1.255-.532-2.002 0-.756.177-1.423.532-2.002a3.781 3.781 0 0 1 1.47-1.372c.625-.336 1.34-.504 2.142-.504.793 0 1.503.168 2.128.504a3.69 3.69 0 0 1 1.47 1.358c.355.579.532 1.25.532 2.016 0 .747-.177 1.414-.532 2.002a3.79 3.79 0 0 1-1.47 1.372c-.625.336-1.335.504-2.128.504Zm0-1.792c.364 0 .69-.084.98-.252.29-.168.518-.406.686-.714.168-.317.252-.69.252-1.12 0-.439-.084-.812-.252-1.12a1.806 1.806 0 0 0-.686-.714 1.916 1.916 0 0 0-.98-.252c-.364 0-.69.084-.98.252-.29.168-.523.406-.7.714-.168.308-.252.681-.252 1.12 0 .43.084.803.252 1.12.177.308.41.546.7.714.29.168.616.252.98.252ZM72.4 35v-7.532h3.85c.943 0 1.68.173 2.212.518.532.336.798.812.798 1.428 0 .616-.252 1.101-.756 1.456-.495.345-1.153.518-1.974.518l.224-.504c.915 0 1.596.168 2.044.504.457.336.686.826.686 1.47 0 .663-.252 1.185-.756 1.568s-1.274.574-2.31.574H72.4Zm2.002-1.484h1.834c.401 0 .7-.065.896-.196.205-.14.308-.35.308-.63 0-.29-.093-.5-.28-.63-.187-.14-.48-.21-.882-.21h-1.876v1.666Zm0-2.954h1.652c.383 0 .667-.07.854-.21.196-.14.294-.34.294-.602 0-.27-.098-.471-.294-.602-.187-.13-.471-.196-.854-.196h-1.652v1.61ZM85.756 35v-1.47l-.14-.322v-2.632c0-.467-.145-.83-.434-1.092-.28-.261-.714-.392-1.302-.392a3.74 3.74 0 0 0-1.19.196c-.383.121-.71.29-.98.504l-.784-1.526c.41-.29.905-.513 1.484-.672a6.64 6.64 0 0 1 1.764-.238c1.148 0 2.04.27 2.674.812.635.541.952 1.386.952 2.534V35h-2.044Zm-2.296.112c-.588 0-1.092-.098-1.512-.294-.42-.205-.742-.48-.966-.826a2.09 2.09 0 0 1-.336-1.162c0-.448.107-.84.322-1.176.224-.336.574-.597 1.05-.784.476-.196 1.097-.294 1.862-.294h2.002v1.274h-1.764c-.513 0-.868.084-1.064.252a.813.813 0 0 0-.28.63c0 .28.107.504.322.672.224.159.527.238.91.238.364 0 .69-.084.98-.252.29-.177.5-.434.63-.77l.336 1.008a1.95 1.95 0 0 1-.868 1.106c-.42.252-.961.378-1.624.378Zm9.961 0c-.812 0-1.535-.163-2.17-.49a3.833 3.833 0 0 1-1.498-1.386c-.354-.588-.532-1.255-.532-2.002 0-.756.178-1.423.532-2.002a3.733 3.733 0 0 1 1.498-1.372c.635-.336 1.358-.504 2.17-.504.794 0 1.484.168 2.072.504a2.994 2.994 0 0 1 1.302 1.414l-1.694.91c-.196-.355-.443-.616-.742-.784a1.862 1.862 0 0 0-.952-.252c-.373 0-.71.084-1.008.252a1.873 1.873 0 0 0-.714.714c-.168.308-.252.681-.252 1.12 0 .439.084.812.252 1.12.178.308.416.546.714.714a2.02 2.02 0 0 0 1.008.252c.346 0 .663-.08.952-.238.299-.168.546-.434.742-.798l1.694.924a3.081 3.081 0 0 1-1.302 1.414c-.588.327-1.278.49-2.072.49Zm12.684.056a5.036 5.036 0 0 1-1.68-.266 3.532 3.532 0 0 1-1.316-.854c-.364-.392-.648-.891-.854-1.498-.196-.607-.294-1.33-.294-2.17 0-.597.052-1.143.154-1.638a5.32 5.32 0 0 1 .462-1.344c.206-.41.467-.77.784-1.078a4.248 4.248 0 0 1 1.134-.784 6.17 6.17 0 0 1 1.484-.49l3.584-.714.294 1.876-3.164.63c-.186.037-.401.089-.644.154a3.361 3.361 0 0 0-.714.266 2.415 2.415 0 0 0-.658.518c-.196.215-.354.5-.476.854-.121.345-.182.775-.182 1.288 0 .159.005.28.014.364.019.084.033.173.042.266.019.093.028.238.028.434l-.7-.686a3.78 3.78 0 0 1 .784-1.12c.327-.308.7-.541 1.12-.7.43-.168.906-.252 1.428-.252.71 0 1.33.145 1.862.434.542.28.962.677 1.26 1.19.299.513.448 1.097.448 1.75 0 .71-.177 1.335-.532 1.876-.354.532-.849.947-1.484 1.246-.625.299-1.353.448-2.184.448Zm.112-1.694c.364 0 .686-.08.966-.238.28-.168.495-.387.644-.658.159-.28.238-.593.238-.938 0-.336-.079-.635-.238-.896a1.576 1.576 0 0 0-.644-.616 2.05 2.05 0 0 0-.98-.224c-.364 0-.69.075-.98.224-.289.14-.513.336-.672.588a1.626 1.626 0 0 0-.238.882c0 .345.08.663.238.952.168.28.392.504.672.672.29.168.621.252.994.252Zm9.392 1.638c-.858 0-1.614-.168-2.268-.504a3.745 3.745 0 0 1-1.498-1.372c-.354-.588-.532-1.255-.532-2.002 0-.756.173-1.423.518-2.002a3.713 3.713 0 0 1 1.442-1.372c.607-.336 1.293-.504 2.058-.504.738 0 1.4.159 1.988.476a3.433 3.433 0 0 1 1.414 1.344c.346.579.518 1.274.518 2.086 0 .084-.004.182-.014.294-.009.103-.018.2-.028.294h-6.118v-1.274h4.97l-.84.378c0-.392-.079-.733-.238-1.022a1.685 1.685 0 0 0-.658-.672 1.866 1.866 0 0 0-.98-.252c-.373 0-.704.084-.994.252-.28.159-.499.387-.658.686-.158.29-.238.635-.238 1.036v.336c0 .41.089.775.266 1.092.187.308.444.546.77.714.336.159.728.238 1.176.238.402 0 .752-.06 1.05-.182.308-.121.588-.303.84-.546l1.162 1.26a3.446 3.446 0 0 1-1.302.91c-.522.205-1.124.308-1.806.308Zm9.038 0c-.812 0-1.535-.163-2.17-.49a3.838 3.838 0 0 1-1.498-1.386c-.354-.588-.532-1.255-.532-2.002 0-.756.178-1.423.532-2.002a3.737 3.737 0 0 1 1.498-1.372c.635-.336 1.358-.504 2.17-.504.794 0 1.484.168 2.072.504a2.994 2.994 0 0 1 1.302 1.414l-1.694.91c-.196-.355-.443-.616-.742-.784a1.86 1.86 0 0 0-.952-.252c-.373 0-.709.084-1.008.252a1.883 1.883 0 0 0-.714.714c-.168.308-.252.681-.252 1.12 0 .439.084.812.252 1.12.178.308.416.546.714.714.299.168.635.252 1.008.252.346 0 .663-.08.952-.238.299-.168.546-.434.742-.798l1.694.924a3.081 3.081 0 0 1-1.302 1.414c-.588.327-1.278.49-2.072.49Zm4.841-.112v-7.532h7.49V35h-2.184v-6.23l.49.49h-4.116l.49-.49V35h-2.17Zm13.252.112c-.802 0-1.516-.168-2.142-.504a3.923 3.923 0 0 1-1.47-1.372c-.354-.588-.532-1.255-.532-2.002 0-.756.178-1.423.532-2.002a3.781 3.781 0 0 1 1.47-1.372c.626-.336 1.34-.504 2.142-.504.794 0 1.503.168 2.128.504a3.68 3.68 0 0 1 1.47 1.358c.355.579.532 1.25.532 2.016 0 .747-.177 1.414-.532 2.002a3.78 3.78 0 0 1-1.47 1.372c-.625.336-1.334.504-2.128.504Zm0-1.792c.364 0 .691-.084.98-.252.29-.168.518-.406.686-.714.168-.317.252-.69.252-1.12 0-.439-.084-.812-.252-1.12a1.801 1.801 0 0 0-.686-.714 1.915 1.915 0 0 0-.98-.252c-.364 0-.69.084-.98.252a1.913 1.913 0 0 0-.7.714c-.168.308-.252.681-.252 1.12 0 .43.084.803.252 1.12.178.308.411.546.7.714.29.168.616.252.98.252ZM153.847 35l-2.52-3.57 1.778-1.05 3.318 4.62h-2.576Zm-5.334 0v-7.532h2.184V35h-2.184Zm1.54-2.856v-1.75h2.632v1.75h-2.632Zm3.262-.658-2.044-.224 2.646-3.794h2.324l-2.926 4.018Zm7.616 3.626c-.803 0-1.517-.168-2.142-.504a3.923 3.923 0 0 1-1.47-1.372c-.355-.588-.532-1.255-.532-2.002 0-.756.177-1.423.532-2.002a3.781 3.781 0 0 1 1.47-1.372c.625-.336 1.339-.504 2.142-.504.793 0 1.502.168 2.128.504a3.7 3.7 0 0 1 1.47 1.358c.354.579.532 1.25.532 2.016 0 .747-.178 1.414-.532 2.002a3.794 3.794 0 0 1-1.47 1.372c-.626.336-1.335.504-2.128.504Zm0-1.792c.364 0 .69-.084.98-.252.289-.168.518-.406.686-.714.168-.317.252-.69.252-1.12 0-.439-.084-.812-.252-1.12a1.808 1.808 0 0 0-.686-.714 1.917 1.917 0 0 0-.98-.252c-.364 0-.691.084-.98.252-.29.168-.523.406-.7.714-.168.308-.252.681-.252 1.12 0 .43.084.803.252 1.12.177.308.41.546.7.714.289.168.616.252.98.252Zm5.772 1.68v-7.532h2.17v4.48l3.668-4.48h2.002V35h-2.17v-4.48L168.719 35h-2.016Zm11.689 0v-6.244l.49.504h-3.038v-1.792h7.266v1.792h-3.038l.49-.504V35h-2.17Zm8.01-3.402c0-.327.052-.616.154-.868.112-.252.248-.476.406-.672.168-.196.346-.378.532-.546.187-.168.36-.327.518-.476.168-.159.304-.322.406-.49a.988.988 0 0 0 .168-.56.96.96 0 0 0-.42-.812c-.27-.205-.634-.308-1.092-.308-.438 0-.83.093-1.176.28-.345.177-.63.43-.854.756l-1.694-.994c.374-.57.892-1.022 1.554-1.358.663-.345 1.466-.518 2.408-.518.7 0 1.316.103 1.848.308.532.196.948.485 1.246.868.308.383.462.854.462 1.414 0 .364-.056.686-.168.966-.112.28-.256.523-.434.728a5.457 5.457 0 0 1-.574.574c-.196.177-.382.35-.56.518a2.988 2.988 0 0 0-.448.532 1.255 1.255 0 0 0-.168.658h-2.114Zm1.064 3.514c-.392 0-.714-.126-.966-.378a1.225 1.225 0 0 1-.378-.896c0-.355.126-.649.378-.882.252-.243.574-.364.966-.364.402 0 .724.121.966.364.252.233.378.527.378.882 0 .345-.126.644-.378.896-.242.252-.564.378-.966.378Z" fill="#7872B9"/><rect x="40" y="60" width="200" height="30" rx="15" stroke="#7872B9"/><rect x="250" y="60" width="170" height="30" rx="15" fill="#EBF5FF"/><rect x="40" y="100" width="90" height="30" rx="15" fill="#EBF5FF"/><rect x="140" y="100" width="210" height="30" rx="15" stroke="#7872B9"/><rect x="40" y="140" width="120" height="30" rx="15" fill="#EBF5FF"/><rect x="170" y="140" width="90" height="30" rx="15" stroke="#7872B9"/><rect x="270" y="140" width="150" height="30" rx="15" stroke="#7872B9"/></svg>