<svg width="220" height="220" fill="none" xmlns="http://www.w3.org/2000/svg"><path fill-rule="evenodd" clip-rule="evenodd" d="M119.344 10.68c51.416 0 86.773 63.3 86.773 114.675 0 51.376-53.427 83.965-104.817 83.965-51.39 0-83.144-48.844-83.144-100.22s49.798-98.42 101.188-98.42Z" fill="#CDE1FF"/><path fill-rule="evenodd" clip-rule="evenodd" d="m184.758 146.374-23.757-7.174h-.34c-.705 2.99-9.424 11.567-11.67 13.673a67.556 67.556 0 0 1-28.592 14.716 67.755 67.755 0 0 1-32.188-.148 67.567 67.567 0 0 1-28.454-14.981 67.16 67.16 0 0 1-18.243-26.402 66.891 66.891 0 0 1-3.88-31.813A66.988 66.988 0 0 1 49 64.264a67.364 67.364 0 0 1 24.027-21.325 67.697 67.697 0 0 1 31.216-7.814c15.899 0 26.107 4.367 38.586 11.723-.6-1.3-2.062-5.459-2.611-6.94-.574-2.054 2.428-3.613 3.838-5.199 1.41-1.586 3.055-3.223 4.725-4.939a56.234 56.234 0 0 0 4.543-4.912 28.11 28.11 0 0 0-2.611-1.534l-8.458-4.419a91.677 91.677 0 0 0-12.897-4.626 88.724 88.724 0 0 0-18.797-3.327H98.709a97.453 97.453 0 0 0-40.545 12.346 104.404 104.404 0 0 0-15.09 11.021 44.497 44.497 0 0 0-4.411 4.16 21.086 21.086 0 0 0-2.09 2.208c-.808 1.04-1.226 1.352-1.983 2.288-1.41 1.741-2.61 3.17-3.942 4.99a91.4 91.4 0 0 0-17.832 49.569v10.215a84.31 84.31 0 0 0 4.256 22.276 87.485 87.485 0 0 0 17.152 30.671l3.969 4.601 2.14 2.132a94.46 94.46 0 0 0 25.794 17.779c1.984.987 3.969 1.663 6.083 2.599 16.526 6.628 36.028 7.148 53.128 3.561a90.383 90.383 0 0 0 24.906-9.747 91.333 91.333 0 0 0 19.659-14.998l6.083-6.784a76.803 76.803 0 0 0 8.772-13.465Z" fill="#9691D2"/><path fill-rule="evenodd" clip-rule="evenodd" d="m161.262 139.673-2.63-15.574-1.552-.92c-.342-.132-1.184-.369-1.657-.5-2.631-.789-8.734-2.894-10.68-3.131a43.426 43.426 0 0 1-42.984 26.306c-42.089-2.998-54.794-57.347-21.465-79.496a43.089 43.089 0 0 1 26.911-7.471 43.587 43.587 0 0 1 19.86 6.05c2.184 1.29 3.657 2.63 5.63 3.683a90.01 90.01 0 0 0 6.734-6.971c1.157-1.236 2.131-2.341 3.314-3.499 1.184-1.157 2.762-1.973 3.499-3.709l-2.946-8.128c-12.469-7.445-22.86-11.97-38.88-11.864a67.815 67.815 0 0 0-62.623 91.879 67.824 67.824 0 0 0 46.824 41.692 67.814 67.814 0 0 0 60.993-14.51c2.156-2.131 10.942-10.812 11.652-13.837Z" fill="#FEFEFE"/><path fill-rule="evenodd" clip-rule="evenodd" d="M144.462 118.758v-.339l-23.179-6.919h-.284c-1.712 2.996-4.212 5.557-7.267 7.128a19.055 19.055 0 0 1-12.069 1.801 18.907 18.907 0 0 1-9.62-4.972 19.15 19.15 0 0 1-5.359-9.465 19.257 19.257 0 0 1 .643-10.879 19.1 19.1 0 0 1 6.437-8.755c5.49-4.099 16.031-5.535 21.547-.574a114.273 114.273 0 0 0 8.65-8.747c1.477-1.54 2.59-2.846 4.144-4.412a48.245 48.245 0 0 0 4.455-4.465c-1.943-.94-3.393-2.375-5.543-3.655a42.658 42.658 0 0 0-19.553-6.005 42.169 42.169 0 0 0-26.493 7.415c-32.813 21.983-20.382 75.923 21.132 78.899a42.488 42.488 0 0 0 25.307-6.134c7.598-4.647 13.534-11.695 17.052-19.922Zm15.733-54.548a63.174 63.174 0 0 1 8.029 15.46 66.478 66.478 0 0 1 3.871 19.945v4.252a106.829 106.829 0 0 0 11.925 3.839c3.844 1.16 8.316 2.835 12.108 3.634l.367-8.53a87.63 87.63 0 0 0-7.689-37.312c-1.883-4.458-4.394-8.117-6.303-11.828a142.442 142.442 0 0 0-13.233 13.27l-9.075-2.73Z" fill="#9691D2"/><path fill-rule="evenodd" clip-rule="evenodd" d="M138.836 75.407c.728 1.42 2.599 3.789 4.314 6.92 5.431 10.525 4.859 17.734 4.028 28.496 0 1.263 1.819 1.289 2.91 1.631l10.395 3.158 9.537-10.104c.961-1.053.467-.869 1.923-1.211v-4.525a69.535 69.535 0 0 0-3.846-20.366 65.156 65.156 0 0 0-7.978-15.787l-7.796-2.474c-2.781 2.5-4.574 4.447-6.99 7.026a86.773 86.773 0 0 0-6.497 7.236Z" fill="#FEFEFE"/><path fill-rule="evenodd" clip-rule="evenodd" d="M172.349 104.007a65.404 65.404 0 0 1-3.511 19.816 70.842 70.842 0 0 1-3.379 8.2c-1.32 2.628-2.93 4.836-4.197 7.306l24.023 7.254c1.716-1.498 6.52-14.087 7.101-15.769a90.468 90.468 0 0 0 4.118-19.264c-3.827-.815-8.342-2.628-12.222-3.706a107.133 107.133 0 0 1-12.038-3.915v-4.337l.105 4.415Z" fill="#7872B9"/><path fill-rule="evenodd" clip-rule="evenodd" d="M120.68 112.024c-1.205-1.306-8.564-2.92-11.733-3.919l-4.008-1.076-.314-.179a4.601 4.601 0 0 1-1.656-.763 4.48 4.48 0 0 1-1.216-1.339 4.369 4.369 0 0 1-.428-3.482c.393-1.512 3.352-3.997 4.295-4.97 2.986-3.1 6.6-6.404 9.272-9.631-5.579-4.867-16.239-3.459-21.791.563a18.788 18.788 0 0 0-6.51 8.59 18.361 18.361 0 0 0-.65 10.674 18.656 18.656 0 0 0 5.42 9.286 19.334 19.334 0 0 0 9.728 4.879c4.157.725 8.442.104 12.205-1.768a17.748 17.748 0 0 0 7.386-6.865Z" fill="#FEFEFE"/><path fill-rule="evenodd" clip-rule="evenodd" d="m152.719 62.06 7.87 2.44 8.973 2.597c4.801-5.194 26.786-24.994 26.943-28.551a75.431 75.431 0 0 0-7.871-2.597c-1.259-.441-2.781-.96-4.066-1.324-1.286-.364-2.624-.909-4.25-1.247-2.86 2.078-10.861 10.828-13.774 13.866-4.46 4.778-9.916 9.778-13.825 14.815Zm-13.88-22.87c.999 3.606 5.26 11.835 7.074 16.616.658-.313.211 0 .921-.575l9.572-10.006c5.497-5.224 9.573-10.032 14.07-14.368 1.42-1.359 2.919-2.064 3.603-3.814a91.236 91.236 0 0 1-3.288-8.648c-.789-2.273-1.446-4.232-2.025-6.583-.315-1.254-.631-1.254-2.998.784-7.495 6.4-27.218 25.288-26.929 26.595Z" fill="#E0BE7B"/><path fill-rule="evenodd" clip-rule="evenodd" d="M121.746 92.972a20.252 20.252 0 0 1 2.143 11.069l22.736 7.299.229-.584c.817-10.856 1.378-18.182-3.955-28.746-1.607-3.159-3.521-5.547-4.235-6.98-4.874 3.928-11.355 12.607-14.8 15.5a6.684 6.684 0 0 0-2.118 2.442Z" fill="#9691D2"/><path fill-rule="evenodd" clip-rule="evenodd" d="m147.028 110.262-.235.577a31.222 31.222 0 0 1-2.617 7.867v.341c1.936.236 8.06 2.334 10.625 3.12.471.132 1.309.368 1.649.499l1.544.917 2.617 15.524h.34c1.256-2.465 2.853-4.615 4.161-7.29a70.917 70.917 0 0 0 3.35-8.181 65.656 65.656 0 0 0 3.481-19.772c-1.466.341-.969.158-1.937 1.207l-9.631 10.069-10.468-3.147c-1.047-.472-2.748-.472-2.879-1.731Z" fill="#F1E6F7"/><path fill-rule="evenodd" clip-rule="evenodd" d="m120.68 111.877 24.015 6.939a30.604 30.604 0 0 0 2.684-7.856l-24.016-7.096a22.327 22.327 0 0 1-2.683 8.013Z" fill="#7872B9"/><path fill-rule="evenodd" clip-rule="evenodd" d="m104.66 106.889.319.191 4.062 1.148c3.213 1.065 10.185 2.324 11.459 3.772l1-1c1.388-2.6 2.017-4.037 2.383-6.979a57.567 57.567 0 0 1-9.664-3.361 38.49 38.49 0 0 0-3.983 3.88c-2.018 1.639-2.018 2.568-5.576 2.349Z" fill="#F1E6F7"/><path fill-rule="evenodd" clip-rule="evenodd" d="M114.273 100.714a58.66 58.66 0 0 0 9.528 3.15 18.561 18.561 0 0 0-2.199-10.68 46.567 46.567 0 0 0-7.329 7.53Z" fill="#FEFEFE"/><path fill-rule="evenodd" clip-rule="evenodd" d="M101.64 101.32a4.567 4.567 0 0 0-.15 1.827 4.56 4.56 0 0 0 3.443 3.891c3.527.21 3.527-.682 5.487-2.361 8.623-7.317 76.561-75.904 78.39-81.307 1.464-4.538-4.703-9.154-9.25-3.147-13.457 17.546-76.091 73.78-77.92 81.097Z" fill="#FACD6E"/></svg>