<svg width="40" height="40" fill="none" xmlns="http://www.w3.org/2000/svg"><circle cx="20" cy="20" r="20" fill="#D7C3E6"/><path d="M8.402 19.776c7.332-3.225 16.819-7.157 18.129-7.702 3.435-1.424 4.489-1.151 3.963 2.004-.377 2.267-1.466 9.774-2.334 14.446-.515 2.771-1.67 3.1-3.488 1.9-.874-.576-5.284-3.493-6.242-4.178-.873-.624-2.079-1.374-.567-2.853.538-.527 4.063-3.893 6.81-6.514.36-.344-.092-.91-.507-.633a3219.403 3219.403 0 0 0-9.49 6.307c-.986.67-1.934.977-3.636.489-1.286-.37-2.541-.81-3.03-.978-1.883-.646-1.436-1.483.392-2.288Z" fill="#fff"/></svg>