<svg width="40" height="40" fill="none" xmlns="http://www.w3.org/2000/svg"><circle cx="20" cy="20" r="20" fill="#D7C3E6"/><path fill-rule="evenodd" clip-rule="evenodd" d="M19.21 28.933h1.614s.487-.056.737-.334c.229-.256.221-.737.221-.737s-.031-2.25.974-2.58c.99-.327 2.263 2.174 3.611 3.135 1.02.727 1.795.568 1.795.568l3.606-.052s1.886-.121.991-1.661c-.073-.126-.52-1.14-2.68-3.223-2.262-2.18-1.959-1.827.765-5.597 1.658-2.296 2.321-3.698 2.114-4.299-.197-.572-1.417-.42-1.417-.42l-4.06.026s-.301-.043-.524.096c-.219.135-.358.452-.358.452s-.643 1.777-1.5 3.288c-1.808 3.189-2.53 3.358-2.826 3.16-.688-.462-.516-1.854-.516-2.844 0-3.09.451-4.378-.879-4.712-.44-.11-.766-.184-1.895-.195-1.448-.016-2.674.004-3.368.357-.462.235-.819.759-.601.789.268.037.876.17 1.198.626.416.588.401 1.908.401 1.908s.24 3.637-.558 4.09c-.547.31-1.298-.324-2.91-3.216-.825-1.482-1.449-3.12-1.449-3.12s-.12-.306-.334-.47c-.26-.199-.624-.262-.624-.262l-3.858.027s-.579.016-.792.278c-.19.233-.015.714-.015.714s3.02 7.34 6.44 11.039c3.137 3.392 6.697 3.169 6.697 3.169Z" fill="#fff"/></svg>