<svg width="150" height="150" fill="none" xmlns="http://www.w3.org/2000/svg"><path fill-rule="evenodd" clip-rule="evenodd" d="M40.32 25.826C25.171 46.485-13 97 15.09 122.5c19.271 17.5 31.957 25.96 66.275 25.225 22.055-.432 36.325-6.304 47.034-19.972 10.989-14.024 19.329-30.986 21.16-48.709 1.219-11.794-.301-24.62-5.595-34.095a27.69 27.69 0 0 0-10.819-11.054c-15.839-8.654-18.608-12.829-23.802-14.754-5.193-1.925-12.203-1.687-35.55-1.687-12.832 0-30.835-1.817-35.963 12.98l2.488-4.608Z" fill="#FACD6E"/><path fill-rule="evenodd" clip-rule="evenodd" d="M62.863 2.42c36.114 0 73.158 25.958 73.158 62.041s-24.105 71.647-60.219 71.647c-36.114 0-74.997-27.43-74.997-63.513S26.77 2.42 62.863 2.42Z" fill="#9690D4"/><path fill-rule="evenodd" clip-rule="evenodd" d="M62.648 16.156c29.103 0 58.964 20.918 58.964 50.014 0 29.096-19.474 57.759-48.534 57.759S12.62 101.821 12.62 72.725s20.924-56.57 50.027-56.57Z" fill="#CDE1FF"/><path fill-rule="evenodd" clip-rule="evenodd" d="M109.819 36.642a43.95 43.95 0 0 1 11.792 29.528c0 29.096-19.474 57.759-48.534 57.759A67.67 67.67 0 0 1 34.13 110.95a44.623 44.623 0 0 1-12.356-30.026c0-29.096 20.924-56.57 50.028-56.57a66.053 66.053 0 0 1 38.018 12.288Z" fill="#fff"/><path d="m38.474 101.624 25.6-24.63a1.45 1.45 0 0 1 2.05.04l.226.233a1.47 1.47 0 0 1-.04 2.08l-25.586 24.615a1.45 1.45 0 0 1-2.05-.039l-.255-.265a1.45 1.45 0 0 1 .04-2.049l.015.015Z" fill="#CDE1FF"/><path fill-rule="evenodd" clip-rule="evenodd" d="m87.357 92.908-2.337 2.423a1.97 1.97 0 0 1-2.77 0L67.603 81.313a19.468 19.468 0 0 0 3.548-6.684l16.142 15.445a1.969 1.969 0 0 1 .065 2.834Z" fill="#CDE1FF"/><path d="M71.475 39.26h-3.354c-1.087 0-1.969.88-1.969 1.968v33.4a1.97 1.97 0 0 0 1.97 1.97h3.353a1.97 1.97 0 0 0 1.97-1.97v-33.4a1.969 1.969 0 0 0-1.97-1.969Z" fill="#CDE1FF"/><path fill-rule="evenodd" clip-rule="evenodd" d="M70.158 67.641a7.943 7.943 0 0 1 7.321 4.916 7.937 7.937 0 0 1-5.801 10.811 7.943 7.943 0 0 1-9.483-7.788 7.936 7.936 0 0 1 4.917-7.34 7.944 7.944 0 0 1 3.046-.599Z" fill="#CDE1FF"/><path d="M68.124 37.486H64.77c-1.088 0-1.97.88-1.97 1.968v33.4a1.97 1.97 0 0 0 1.97 1.97h3.354a1.969 1.969 0 0 0 1.969-1.97v-33.4a1.969 1.969 0 0 0-1.97-1.968Z" fill="#FAA8B7"/><path fill-rule="evenodd" clip-rule="evenodd" d="m86.341 89.166-2.315 2.423a1.946 1.946 0 0 1-2.77 0l-14.67-13.997a19.813 19.813 0 0 0 3.549-6.706l16.142 15.446a1.927 1.927 0 0 1 .064 2.834Z" fill="#FAA8B7"/><path d="M63.755 74.929 38.138 99.574a1.449 1.449 0 0 0-.039 2.049l.24.25a1.45 1.45 0 0 0 2.05.039l25.616-24.645a1.45 1.45 0 0 0 .04-2.05l-.24-.249a1.45 1.45 0 0 0-2.05-.04Z" fill="#FFCF70"/><path fill-rule="evenodd" clip-rule="evenodd" d="M66.65 80.75a7.965 7.965 0 0 0 7.36-4.919 7.959 7.959 0 0 0-5.82-10.851 7.964 7.964 0 0 0-9.502 7.832 7.96 7.96 0 0 0 7.962 7.939Z" fill="#6B66A6"/><path fill-rule="evenodd" clip-rule="evenodd" d="M67.885 31.883a4.956 4.956 0 0 0 4.86-5.92 4.953 4.953 0 0 0-6.756-3.61 4.954 4.954 0 0 0 1.896 9.53ZM23.182 72.704a4.956 4.956 0 0 0 3.504-8.457 4.955 4.955 0 0 0-8.46 3.503 4.975 4.975 0 0 0 4.956 4.954Zm90.357 1.795a4.957 4.957 0 0 0 4.593-3.043 4.956 4.956 0 0 0-8.69-4.665 4.956 4.956 0 0 0-.836 2.754 4.922 4.922 0 0 0 1.437 3.502 4.93 4.93 0 0 0 3.496 1.452Zm-45.654 42.616a4.959 4.959 0 0 0 4.578-3.058 4.956 4.956 0 0 0-3.611-6.755 4.957 4.957 0 0 0-5.922 4.859 4.979 4.979 0 0 0 4.955 4.954Zm32.025-14.04a4.949 4.949 0 0 0 4.593-3.043 4.956 4.956 0 1 0-9.526-1.91 4.937 4.937 0 0 0 1.437 3.501 4.935 4.935 0 0 0 3.496 1.452Zm-67.318-4.002a4.956 4.956 0 0 0 4.86-5.92 4.953 4.953 0 0 0-6.756-3.61 4.955 4.955 0 0 0-3.06 4.576 4.975 4.975 0 0 0 4.956 4.954ZM99.217 45.64a4.957 4.957 0 0 0 4.86-5.92 4.952 4.952 0 0 0-3.893-3.892 4.958 4.958 0 0 0-5.087 2.107 4.953 4.953 0 0 0-.835 2.752 4.975 4.975 0 0 0 4.955 4.954Zm-62.254-.28a4.956 4.956 0 0 0 4.86-5.92 4.953 4.953 0 0 0-6.756-3.61 4.955 4.955 0 0 0-3.06 4.576 4.975 4.975 0 0 0 4.956 4.954Z" fill="#CDE1FF"/></svg>